<mxfile host="65bd71144e">
    <diagram id="atjFXyCqWCtL_1M6tRS4" name="第 1 页">
        <mxGraphModel dx="1386" dy="787" grid="1" gridSize="10" guides="1" tooltips="1" connect="1" arrows="1" fold="1" page="1" pageScale="1" pageWidth="827" pageHeight="1169" math="0" shadow="0">
            <root>
                <mxCell id="0"/>
                <mxCell id="1" parent="0"/>
                <mxCell id="2" value="&lt;font style=&quot;font-size: 16px;&quot;&gt;Fixlog&lt;/font&gt;" style="strokeWidth=2;html=1;shape=mxgraph.flowchart.direct_data;whiteSpace=wrap;" vertex="1" parent="1">
                    <mxGeometry x="200" y="195" width="90" height="50" as="geometry"/>
                </mxCell>
                <mxCell id="4" style="edgeStyle=none;html=1;exitX=1;exitY=0.5;exitDx=0;exitDy=0;entryX=0;entryY=0.5;entryDx=0;entryDy=0;entryPerimeter=0;fontSize=16;" edge="1" parent="1" source="3" target="2">
                    <mxGeometry relative="1" as="geometry"/>
                </mxCell>
                <mxCell id="6" style="edgeStyle=none;html=1;exitX=0.5;exitY=1;exitDx=0;exitDy=0;entryX=0.5;entryY=0;entryDx=0;entryDy=0;fontSize=16;" edge="1" parent="1" source="3" target="5">
                    <mxGeometry relative="1" as="geometry"/>
                </mxCell>
                <mxCell id="3" value="Router" style="html=1;dashed=0;whitespace=wrap;fontSize=16;" vertex="1" parent="1">
                    <mxGeometry x="20" y="195" width="100" height="50" as="geometry"/>
                </mxCell>
                <mxCell id="10" style="edgeStyle=none;html=1;exitX=1;exitY=0.5;exitDx=0;exitDy=0;entryX=0;entryY=0.5;entryDx=0;entryDy=0;entryPerimeter=0;fontSize=16;" edge="1" parent="1" source="5">
                    <mxGeometry relative="1" as="geometry">
                        <mxPoint x="200" y="335" as="targetPoint"/>
                    </mxGeometry>
                </mxCell>
                <mxCell id="5" value="OMS" style="html=1;dashed=0;whitespace=wrap;fontSize=16;" vertex="1" parent="1">
                    <mxGeometry x="20" y="310" width="100" height="50" as="geometry"/>
                </mxCell>
                <mxCell id="7" value="WRITE" style="text;html=1;align=center;verticalAlign=middle;resizable=0;points=[];autosize=1;strokeColor=none;fillColor=none;fontSize=16;" vertex="1" parent="1">
                    <mxGeometry x="120" y="190" width="80" height="30" as="geometry"/>
                </mxCell>
                <mxCell id="8" value="websocket" style="text;html=1;align=center;verticalAlign=middle;resizable=0;points=[];autosize=1;strokeColor=none;fillColor=none;fontSize=16;" vertex="1" parent="1">
                    <mxGeometry x="70" y="260" width="100" height="30" as="geometry"/>
                </mxCell>
                <mxCell id="11" value="INSERT" style="text;html=1;align=center;verticalAlign=middle;resizable=0;points=[];autosize=1;strokeColor=none;fillColor=none;fontSize=16;" vertex="1" parent="1">
                    <mxGeometry x="120" y="306" width="80" height="30" as="geometry"/>
                </mxCell>
                <mxCell id="19" style="edgeStyle=none;html=1;exitX=0.5;exitY=1;exitDx=0;exitDy=0;entryX=0.5;entryY=0;entryDx=0;entryDy=0;entryPerimeter=0;fontSize=16;" edge="1" parent="1" source="13" target="15">
                    <mxGeometry relative="1" as="geometry"/>
                </mxCell>
                <mxCell id="13" value="OMS DB" style="shape=datastore;whiteSpace=wrap;html=1;fontSize=16;" vertex="1" parent="1">
                    <mxGeometry x="200" y="295" width="90" height="80" as="geometry"/>
                </mxCell>
                <mxCell id="14" value="zidan/&lt;br&gt;mudan" style="text;html=1;align=center;verticalAlign=middle;resizable=0;points=[];autosize=1;strokeColor=none;fillColor=none;fontSize=16;" vertex="1" parent="1">
                    <mxGeometry x="125" y="340" width="70" height="50" as="geometry"/>
                </mxCell>
                <mxCell id="23" style="edgeStyle=elbowEdgeStyle;html=1;exitX=1;exitY=0.5;exitDx=0;exitDy=0;exitPerimeter=0;entryX=0;entryY=0.5;entryDx=0;entryDy=0;fontSize=16;startArrow=none;startFill=0;strokeWidth=2;fillColor=#008a00;strokeColor=#005700;" edge="1" parent="1" source="15" target="22">
                    <mxGeometry relative="1" as="geometry"/>
                </mxCell>
                <mxCell id="15" value="oms_trade_save.py" style="sketch=0;aspect=fixed;pointerEvents=1;shadow=0;dashed=0;html=1;strokeColor=none;labelPosition=center;verticalLabelPosition=bottom;verticalAlign=top;align=center;fillColor=#FFFFFF;shape=mxgraph.mscae.enterprise.code_file;fontSize=16;" vertex="1" parent="1">
                    <mxGeometry x="210.7" y="480" width="68.6" height="70" as="geometry"/>
                </mxCell>
                <mxCell id="20" value="QUERY" style="text;html=1;align=center;verticalAlign=middle;resizable=0;points=[];autosize=1;strokeColor=none;fillColor=none;fontSize=16;" vertex="1" parent="1">
                    <mxGeometry x="170" y="410" width="80" height="30" as="geometry"/>
                </mxCell>
                <mxCell id="21" value="zidan/&lt;br&gt;mudan" style="text;html=1;align=center;verticalAlign=middle;resizable=0;points=[];autosize=1;strokeColor=none;fillColor=none;fontSize=16;" vertex="1" parent="1">
                    <mxGeometry x="240" y="400" width="70" height="50" as="geometry"/>
                </mxCell>
                <mxCell id="32" style="edgeStyle=elbowEdgeStyle;html=1;exitX=0.5;exitY=1;exitDx=0;exitDy=0;entryX=0.5;entryY=0;entryDx=0;entryDy=0;entryPerimeter=0;fontSize=16;startArrow=none;startFill=0;strokeWidth=2;" edge="1" parent="1" source="22" target="31">
                    <mxGeometry relative="1" as="geometry"/>
                </mxCell>
                <mxCell id="22" value="QI DB" style="shape=datastore;whiteSpace=wrap;html=1;fontSize=16;" vertex="1" parent="1">
                    <mxGeometry x="490" y="475" width="90" height="80" as="geometry"/>
                </mxCell>
                <mxCell id="24" value="mudan-&amp;gt;oms_trade" style="text;html=1;align=center;verticalAlign=middle;resizable=0;points=[];autosize=1;strokeColor=none;fillColor=none;fontSize=16;" vertex="1" parent="1">
                    <mxGeometry x="300" y="480" width="160" height="30" as="geometry"/>
                </mxCell>
                <mxCell id="25" value="zidan-&amp;gt;oms_trade_detail" style="text;html=1;align=center;verticalAlign=middle;resizable=0;points=[];autosize=1;strokeColor=none;fillColor=none;fontSize=16;" vertex="1" parent="1">
                    <mxGeometry x="280" y="520" width="200" height="30" as="geometry"/>
                </mxCell>
                <mxCell id="27" style="edgeStyle=elbowEdgeStyle;html=1;exitX=0.5;exitY=1;exitDx=0;exitDy=0;entryX=0.5;entryY=0;entryDx=0;entryDy=0;fontSize=16;startArrow=none;startFill=0;dashed=1;" edge="1" parent="1" source="26" target="3">
                    <mxGeometry relative="1" as="geometry"/>
                </mxCell>
                <mxCell id="26" value="Source" style="html=1;dashed=0;whitespace=wrap;fontSize=16;" vertex="1" parent="1">
                    <mxGeometry x="20" y="90" width="100" height="50" as="geometry"/>
                </mxCell>
                <mxCell id="29" style="edgeStyle=elbowEdgeStyle;html=1;exitX=0.5;exitY=1;exitDx=0;exitDy=0;entryX=0.5;entryY=0;entryDx=0;entryDy=0;dashed=1;fontSize=16;startArrow=none;startFill=0;" edge="1" parent="1" source="28" target="22">
                    <mxGeometry relative="1" as="geometry"/>
                </mxCell>
                <mxCell id="28" value="Target" style="html=1;dashed=0;whitespace=wrap;fontSize=16;" vertex="1" parent="1">
                    <mxGeometry x="485" y="90" width="100" height="50" as="geometry"/>
                </mxCell>
                <mxCell id="30" value="transaction_view" style="text;html=1;align=center;verticalAlign=middle;resizable=0;points=[];autosize=1;strokeColor=none;fillColor=none;fontSize=16;" vertex="1" parent="1">
                    <mxGeometry x="400" y="280" width="140" height="30" as="geometry"/>
                </mxCell>
                <mxCell id="36" style="edgeStyle=elbowEdgeStyle;html=1;exitX=0;exitY=0.5;exitDx=0;exitDy=0;exitPerimeter=0;entryX=1;entryY=0.5;entryDx=0;entryDy=0;entryPerimeter=0;fontSize=16;startArrow=none;startFill=0;fillColor=#a20025;strokeColor=#6F0000;strokeWidth=2;" edge="1" parent="1" source="31" target="35">
                    <mxGeometry relative="1" as="geometry"/>
                </mxCell>
                <mxCell id="38" style="edgeStyle=elbowEdgeStyle;html=1;exitX=0;exitY=0.5;exitDx=0;exitDy=0;exitPerimeter=0;entryX=1;entryY=0.5;entryDx=0;entryDy=0;entryPerimeter=0;fontSize=16;startArrow=none;startFill=0;fillColor=#a20025;strokeColor=#6F0000;strokeWidth=2;" edge="1" parent="1" source="31" target="37">
                    <mxGeometry relative="1" as="geometry">
                        <Array as="points">
                            <mxPoint x="440" y="730"/>
                        </Array>
                    </mxGeometry>
                </mxCell>
                <mxCell id="31" value="oms_trade_check.py" style="sketch=0;aspect=fixed;pointerEvents=1;shadow=0;dashed=0;html=1;strokeColor=none;labelPosition=center;verticalLabelPosition=bottom;verticalAlign=top;align=center;fillColor=#FFFFFF;shape=mxgraph.mscae.enterprise.code_file;fontSize=16;" vertex="1" parent="1">
                    <mxGeometry x="500.7" y="650" width="68.6" height="70" as="geometry"/>
                </mxCell>
                <mxCell id="33" value="QUERY" style="text;html=1;align=center;verticalAlign=middle;resizable=0;points=[];autosize=1;strokeColor=none;fillColor=none;fontSize=16;" vertex="1" parent="1">
                    <mxGeometry x="460" y="590" width="80" height="30" as="geometry"/>
                </mxCell>
                <mxCell id="34" value="oms_trade&lt;br&gt;transaction_view" style="text;html=1;align=center;verticalAlign=middle;resizable=0;points=[];autosize=1;strokeColor=none;fillColor=none;fontSize=16;" vertex="1" parent="1">
                    <mxGeometry x="300" y="630" width="140" height="50" as="geometry"/>
                </mxCell>
                <mxCell id="35" value="&lt;font style=&quot;font-size: 16px;&quot;&gt;diff&lt;/font&gt;" style="strokeWidth=2;html=1;shape=mxgraph.flowchart.direct_data;whiteSpace=wrap;" vertex="1" parent="1">
                    <mxGeometry x="200" y="660" width="90" height="50" as="geometry"/>
                </mxCell>
                <mxCell id="37" value="&lt;font style=&quot;font-size: 16px;&quot;&gt;diff_zb&lt;/font&gt;" style="strokeWidth=2;html=1;shape=mxgraph.flowchart.direct_data;whiteSpace=wrap;" vertex="1" parent="1">
                    <mxGeometry x="200" y="740" width="90" height="50" as="geometry"/>
                </mxCell>
                <mxCell id="39" value="oms_trade_detail&lt;br&gt;transaction_view" style="text;html=1;align=center;verticalAlign=middle;resizable=0;points=[];autosize=1;strokeColor=none;fillColor=none;fontSize=16;" vertex="1" parent="1">
                    <mxGeometry x="295" y="710" width="150" height="50" as="geometry"/>
                </mxCell>
                <mxCell id="41" value="" style="rounded=0;whiteSpace=wrap;html=1;fontSize=16;fillColor=none;dashed=1;fontColor=#ffffff;strokeColor=#005700;strokeWidth=4;dashPattern=1 1;" vertex="1" parent="1">
                    <mxGeometry x="190" y="165" width="110" height="220" as="geometry"/>
                </mxCell>
            </root>
        </mxGraphModel>
    </diagram>
</mxfile>